<svg version="1.1" preserveAspectRatio="none" xmlns="http://www.w3.org/2000/svg" width="500" height="500" viewBox="0 0 500 500"><rect width="100%" height="100%" fill="#FFFFFF" fill-opacity="1"/><svg viewBox="72.0722 385.7404 606.3523 154" width="333" height="84.57459467045808" x="83.5px" y="207.7127px" xmlns="http://www.w3.org/2000/svg" xmlns:xlink="http://www.w3.org/1999/xlink" preserveAspectRatio="none"><defs></defs><style>.companyName {fill:#4D4D4D;fill-opacity:1;}.icon1 {fill:#FF834F;fill-opacity:1;}.icon2 {fill:#FF4949;fill-opacity:1;}.icon3 {fill:#FFAE78;fill-opacity:1;}.icon3-str {stroke:#FFAE78;stroke-opacity:1;}.shapeStroke-str {stroke:#313131;stroke-opacity:1;}</style><g opacity="1" transform="rotate(0 72.0722 397.7404)">
<svg width="152.942" height="130" x="72.0722" y="397.7404" version="1.1" preserveAspectRatio="none" viewBox="22.682992935180664 22.592988967895508 160.00099182128906 136.00001525878906">
  <g transform="matrix(1 0 0 1 0 0)"><g><path d="M64.017 109.259c0 5.159-4.178 9.334-9.334 9.334s-9.334-4.175-9.334-9.334c0-5.152 4.178-9.334 9.334-9.334s9.334 4.182 9.334 9.334zm86.666-9.333c-5.156 0-9.334 4.182-9.334 9.334a9.33 9.33 0 0 0 9.334 9.334 9.33 9.33 0 0 0 9.334-9.334c0-5.153-4.178-9.334-9.334-9.334zm-82.664 42.667h69.332v2.668c0 7.298 6.034 13.332 13.332 13.332 7.335 0 13.336-6.005 13.336-13.332v-2.723c8.191-.68 14.666-7.588 14.666-15.945v-17.33c0-10.084-5.339-18.921-13.339-23.853l-1.165-3.109.261-.257a2.578 2.578 0 0 1 1.889-.783h9.687c3.653 0 6.669-3.017 6.666-6.666 0-3.664-3.002-6.666-6.666-6.666h-6.247c-2.936 0-5.468 1.048-7.544 3.124l-1.643 1.646-7.298-19.465c-3.976-10.613-13.637-17.305-24.97-17.305h-5.63l-3.704-9.874c-.79-2.117-2.727-3.462-4.99-3.462H91.38c-2.264 0-4.2 1.345-4.994 3.462l-3.701 9.874h-5.634c-11.333 0-20.99 6.692-24.97 17.305l-7.295 19.465-1.646-1.646c-2.076-2.076-4.608-3.124-7.544-3.124h-6.247c-3.664 0-6.662 3.002-6.666 6.666-.004 3.649 3.013 6.666 6.666 6.666h9.69c.735 0 1.367.261 1.885.783l.261.257-1.165 3.109c-8 4.932-13.336 13.769-13.336 23.853v17.33c0 8.356 6.471 15.265 14.666 15.945v2.723c0 7.328 6.001 13.332 13.332 13.332 7.302 0 13.336-6.034 13.336-13.332v-2.668zm60.296-93.332c5.67 0 10.499 3.348 12.487 8.654l7.401 19.741a2.624 2.624 0 0 1-.305 2.458 2.602 2.602 0 0 1-2.194 1.147H59.663a2.595 2.595 0 0 1-2.19-1.147 2.602 2.602 0 0 1-.305-2.458l7.397-19.741c1.992-5.307 6.82-8.654 12.487-8.654h51.263zm-8.298 64a2.672 2.672 0 0 1 2.668 2.664v10.668a2.672 2.672 0 0 1-2.668 2.668H85.349a2.672 2.672 0 0 1-2.664-2.668v-10.668a2.67 2.67 0 0 1 2.664-2.664h34.668z" clip-rule="evenodd" fill-rule="evenodd" data-color="1" class="icon1"></path></g></g>
</svg>
</g><g opacity="1" transform="rotate(0 289.0142 412.7404)">
<svg width="389.4103" height="100" x="289.0142" y="412.7404" version="1.1" preserveAspectRatio="none" viewBox="0.16 -31.48 152.8 39.24">
  <g transform="matrix(1 0 0 1 0 0)" class="companyName"><path id="id-D6z1nYkh7" d="M9.12 0L9.12-22.72L0.16-22.72L0.16-28L24.56-28L24.56-22.72L15.60-22.72L15.60 0L9.12 0Z M33.08-18.68Q34.20-20.24 36.10-21.04Q38-21.84 40.48-21.84L40.48-21.84L40.48-16.08Q39.44-16.16 39.08-16.16L39.08-16.16Q36.40-16.16 34.88-14.66Q33.36-13.16 33.36-10.16L33.36-10.16L33.36 0L27.12 0L27.12-21.52L33.08-21.52L33.08-18.68Z M44.20 0L44.20-21.52L50.44-21.52L50.44 0L44.20 0ZM47.32-24.52Q45.60-24.52 44.52-25.52Q43.44-26.52 43.44-28L43.44-28Q43.44-29.48 44.52-30.48Q45.60-31.48 47.32-31.48L47.32-31.48Q49.04-31.48 50.12-30.52Q51.20-29.56 51.20-28.12L51.20-28.12Q51.20-26.56 50.12-25.54Q49.04-24.52 47.32-24.52L47.32-24.52Z M68.96-21.84Q71.96-21.84 74.42-20.46Q76.88-19.08 78.28-16.58Q79.68-14.08 79.68-10.76L79.68-10.76Q79.68-7.44 78.28-4.94Q76.88-2.44 74.42-1.06Q71.96 0.32 68.96 0.32L68.96 0.32Q64.84 0.32 62.48-2.28L62.48-2.28L62.48 7.76L56.24 7.76L56.24-21.52L62.20-21.52L62.20-19.04Q64.52-21.84 68.96-21.84L68.96-21.84ZM67.88-4.80Q70.28-4.80 71.82-6.42Q73.36-8.04 73.36-10.76L73.36-10.76Q73.36-13.48 71.82-15.10Q70.28-16.72 67.88-16.72L67.88-16.72Q65.48-16.72 63.94-15.10Q62.40-13.48 62.40-10.76L62.40-10.76Q62.40-8.04 63.94-6.42Q65.48-4.80 67.88-4.80L67.88-4.80Z M87.44 0L87.44-22.72L78.48-22.72L78.48-28L102.88-28L102.88-22.72L93.92-22.72L93.92 0L87.44 0Z M113.52-21.84Q118.52-21.84 121.20-19.46Q123.88-17.08 123.88-12.28L123.88-12.28L123.88 0L118.04 0L118.04-2.68Q116.28 0.32 111.48 0.32L111.48 0.32Q109.00 0.32 107.18-0.52Q105.36-1.36 104.40-2.84Q103.44-4.32 103.44-6.20L103.44-6.20Q103.44-9.20 105.70-10.92Q107.96-12.64 112.68-12.64L112.68-12.64L117.64-12.64Q117.64-14.68 116.40-15.78Q115.16-16.88 112.68-16.88L112.68-16.88Q110.96-16.88 109.30-16.34Q107.64-15.80 106.48-14.88L106.48-14.88L104.24-19.24Q106.00-20.48 108.46-21.16Q110.92-21.84 113.52-21.84L113.52-21.84ZM113.04-3.88Q114.64-3.88 115.88-4.62Q117.12-5.36 117.64-6.80L117.64-6.80L117.64-9L113.36-9Q109.52-9 109.52-6.48L109.52-6.48Q109.52-5.28 110.46-4.58Q111.40-3.88 113.04-3.88L113.04-3.88Z M142.24-21.84Q145.24-21.84 147.70-20.46Q150.16-19.08 151.56-16.58Q152.96-14.08 152.96-10.76L152.96-10.76Q152.96-7.44 151.56-4.94Q150.16-2.44 147.70-1.06Q145.24 0.32 142.24 0.32L142.24 0.32Q138.12 0.32 135.76-2.28L135.76-2.28L135.76 7.76L129.52 7.76L129.52-21.52L135.48-21.52L135.48-19.04Q137.80-21.84 142.24-21.84L142.24-21.84ZM141.16-4.80Q143.56-4.80 145.10-6.42Q146.64-8.04 146.64-10.76L146.64-10.76Q146.64-13.48 145.10-15.10Q143.56-16.72 141.16-16.72L141.16-16.72Q138.76-16.72 137.22-15.10Q135.68-13.48 135.68-10.76L135.68-10.76Q135.68-8.04 137.22-6.42Q138.76-4.80 141.16-4.80L141.16-4.80Z"/></g>
</svg>
</g><g opacity="1" transform="rotate(0 255.0142 385.7404)">
<svg width="6" height="154" x="255.0142" y="385.7404" version="1.1" preserveAspectRatio="none" viewBox="0 0 6 154">
  <defs><rect x="0" y="0" width="6" height="154" rx="0px" ry="0px" id="id-tBXipXk0b1741063227250"></rect></defs><use class="companyName shapeStroke-str" style="stroke-width:0;" xlink:href="#id-tBXipXk0b1741063227250"></use>
</svg>
</g></svg></svg>